<svg width="218" height="218" viewBox="0 0 218 218" fill="none" xmlns="http://www.w3.org/2000/svg"><path d="M200 109c0-50.258-40.742-91-91-91s-91 40.742-91 91 40.742 91 91 91 91-40.742 91-91z" fill="url(#paint0_linear_8682_43833)"/><path fill-rule="evenodd" clip-rule="evenodd" d="M107 55.328c.924 0 1.672.749 1.672 1.672v112a1.671 1.671 0 1 1-3.344 0V57c0-.923.749-1.672 1.672-1.672z" fill="url(#paint1_linear_8682_43833)"/><circle cx="53.605" cy="108.081" r="3.179" fill="#fff"/><path fill-rule="evenodd" clip-rule="evenodd" d="M62.972 97.35a.874.874 0 0 1 1.236-.007 15.086 15.086 0 0 1 3.376 16.424 15.095 15.095 0 0 1-3.24 4.916.874.874 0 0 1-1.244-1.228 13.343 13.343 0 0 0-.12-18.868.874.874 0 0 1-.008-1.236zM124.213 88.433a1.682 1.682 0 0 1 2.379-.015 29.047 29.047 0 0 1 8.635 20.477 29.022 29.022 0 0 1-8.373 20.586 1.682 1.682 0 1 1-2.394-2.363 25.698 25.698 0 0 0 5.512-8.364 25.69 25.69 0 0 0-.126-19.648 25.67 25.67 0 0 0-5.618-8.293 1.682 1.682 0 0 1-.015-2.38zM70.847 90.604a24.55 24.55 0 0 1 .237 34.72.875.875 0 0 1-1.245-1.228 22.806 22.806 0 0 0 4.773-24.883 22.801 22.801 0 0 0-4.993-7.364.874.874 0 1 1 1.228-1.245zM139.368 75.45a47.236 47.236 0 0 1 10.592 51.41 47.254 47.254 0 0 1-10.135 15.397 1.683 1.683 0 0 1-2.396-2.363 43.892 43.892 0 0 0 9.414-14.299 43.891 43.891 0 0 0 3.225-16.813 43.893 43.893 0 0 0-13.063-30.936 1.682 1.682 0 1 1 2.363-2.396z" fill="#fff"/><path fill-rule="evenodd" clip-rule="evenodd" d="M76.14 84.313a.874.874 0 0 1 1.236 0 33.615 33.615 0 0 1 0 47.539.875.875 0 0 1-1.236-1.237 31.866 31.866 0 0 0 0-45.066.874.874 0 0 1 0-1.236zM149.548 63.344a1.683 1.683 0 0 1 2.38 0 64.684 64.684 0 0 1 0 91.475 1.683 1.683 0 0 1-2.38-2.379 61.317 61.317 0 0 0 0-86.716 1.682 1.682 0 0 1 0-2.38z" fill="#fff"/><path opacity=".4" fill-rule="evenodd" clip-rule="evenodd" d="M109 216c59.094 0 107-47.906 107-107S168.094 2 109 2 2 49.906 2 109s47.906 107 107 107zm0 2c60.199 0 109-48.801 109-109S169.199 0 109 0 0 48.801 0 109s48.801 109 109 109z" fill="url(#paint2_linear_8682_43833)"/><defs><linearGradient id="paint0_linear_8682_43833" x1="21.45" y1="18" x2="289.792" y2="124.181" gradientUnits="userSpaceOnUse"><stop stop-color="#3E306C"/><stop offset=".508" stop-color="#342A59"/><stop offset="1" stop-color="#60527A"/></linearGradient><linearGradient id="paint1_linear_8682_43833" x1="114.504" y1="55.787" x2="115.207" y2="162.131" gradientUnits="userSpaceOnUse"><stop stop-color="#fff" stop-opacity="0"/><stop offset=".5" stop-color="#fff"/><stop offset="1" stop-color="#fff" stop-opacity="0"/></linearGradient><linearGradient id="paint2_linear_8682_43833" x1="30.497" y1="15.813" x2="162.653" y2="210.093" gradientUnits="userSpaceOnUse"><stop stop-color="#fff"/><stop offset="1" stop-color="#fff" stop-opacity="0"/></linearGradient></defs></svg>