<?xml version="1.0" encoding="iso-8859-1"?>
<!-- Uploaded to: SVG Repo, www.svgrepo.com, Generator: SVG Repo Mixer Tools -->
<!DOCTYPE svg PUBLIC "-//W3C//DTD SVG 1.1//EN" "http://www.w3.org/Graphics/SVG/1.1/DTD/svg11.dtd">
<svg fill="#000000" height="800px" width="800px" version="1.1" id="Capa_1" xmlns="http://www.w3.org/2000/svg" xmlns:xlink="http://www.w3.org/1999/xlink" 
	 viewBox="0 0 319 319" xml:space="preserve">
<g>
	<path d="M309,30.5H122c-5.514,0-10,4.486-10,10v41c0,5.514,4.486,10,10,10h187c5.514,0,10-4.486,10-10v-41
		C319,34.986,314.514,30.5,309,30.5z"/>
	<path d="M65,30.5H10c-5.514,0-10,4.486-10,10v41c0,5.514,4.486,10,10,10h55c5.514,0,10-4.486,10-10v-41
		C75,34.986,70.514,30.5,65,30.5z"/>
	<path d="M65,129.5H10c-5.514,0-10,4.486-10,10v41c0,5.514,4.486,10,10,10h55c5.514,0,10-4.486,10-10v-41
		C75,133.986,70.514,129.5,65,129.5z"/>
	<path d="M309,129.5H122c-5.514,0-10,4.486-10,10v41c0,5.514,4.486,10,10,10h187c5.514,0,10-4.486,10-10v-41
		C319,133.986,314.514,129.5,309,129.5z"/>
	<path d="M65,227.5H10c-5.514,0-10,4.486-10,10v41c0,5.514,4.486,10,10,10h55c5.514,0,10-4.486,10-10v-41
		C75,231.986,70.514,227.5,65,227.5z"/>
	<path d="M309,227.5H122c-5.514,0-10,4.486-10,10v41c0,5.514,4.486,10,10,10h187c5.514,0,10-4.486,10-10v-41
		C319,231.986,314.514,227.5,309,227.5z"/>
</g>
</svg>